<svg width="120" height="80" viewBox="0 0 120 80" fill="none" xmlns="http://www.w3.org/2000/svg">
  <defs>
    <mask id="hc-face" x="0" y="0" width="120" height="80" maskUnits="userSpaceOnUse">
      <rect width="120" height="80" fill="white" />
      <rect x="48" y="32" width="6" height="16" rx="3" fill="black" />
      <rect x="64" y="32" width="6" height="16" rx="3" fill="black" />
      <path d="M55 56c3.2 4.8 7.8 7.2 12 7.2 4 0 7.4-1.9 9.8-5.1" stroke="black" stroke-width="6" stroke-linecap="round" stroke-linejoin="round" />
    </mask>
  </defs>
  <path
    fill="#6B9BFF"
    mask="url(#hc-face)"
    d="M79.5 28c0-9.665-7.835-17.5-17.5-17.5-6.403 0-11.973 3.392-15.118 8.48A18.004 18.004 0 0 0 27 35.5c-.188 0-.375 0-.562.008C18.196 35.818 11 43.33 11 52.5 11 62.165 18.835 70 28.5 70h46.75C89.71 70 99 60.71 99 49.25S89.71 28.5 78.25 28.5c-.922 0-1.833.067-2.722.198z"
  />
</svg>
